<svg xmlns="http://www.w3.org/2000/svg" viewBox="0 0 60 40" role="img" aria-label="United States flag">
  <rect width="60" height="40" fill="#fff"/>
  <g fill="#b22234">
    <rect y="0" width="60" height="3.08"/>
    <rect y="6.15" width="60" height="3.08"/>
    <rect y="12.31" width="60" height="3.08"/>
    <rect y="18.46" width="60" height="3.08"/>
    <rect y="24.62" width="60" height="3.08"/>
    <rect y="30.77" width="60" height="3.08"/>
    <rect y="36.92" width="60" height="3.08"/>
  </g>
  <rect width="24" height="21.54" fill="#3c3b6e"/>
  <g fill="#fff">
    <circle cx="2.8" cy="2.7" r="0.9"/><circle cx="7" cy="2.7" r="0.9"/><circle cx="11.2" cy="2.7" r="0.9"/><circle cx="15.4" cy="2.7" r="0.9"/><circle cx="19.6" cy="2.7" r="0.9"/>
    <circle cx="4.9" cy="5.4" r="0.9"/><circle cx="9.1" cy="5.4" r="0.9"/><circle cx="13.3" cy="5.4" r="0.9"/><circle cx="17.5" cy="5.4" r="0.9"/><circle cx="21.7" cy="5.4" r="0.9"/>
    <circle cx="2.8" cy="8.1" r="0.9"/><circle cx="7" cy="8.1" r="0.9"/><circle cx="11.2" cy="8.1" r="0.9"/><circle cx="15.4" cy="8.1" r="0.9"/><circle cx="19.6" cy="8.1" r="0.9"/>
    <circle cx="4.9" cy="10.8" r="0.9"/><circle cx="9.1" cy="10.8" r="0.9"/><circle cx="13.3" cy="10.8" r="0.9"/><circle cx="17.5" cy="10.8" r="0.9"/><circle cx="21.7" cy="10.8" r="0.9"/>
    <circle cx="2.8" cy="13.5" r="0.9"/><circle cx="7" cy="13.5" r="0.9"/><circle cx="11.2" cy="13.5" r="0.9"/><circle cx="15.4" cy="13.5" r="0.9"/><circle cx="19.6" cy="13.5" r="0.9"/>
    <circle cx="4.9" cy="16.2" r="0.9"/><circle cx="9.1" cy="16.2" r="0.9"/><circle cx="13.3" cy="16.2" r="0.9"/><circle cx="17.5" cy="16.2" r="0.9"/><circle cx="21.7" cy="16.2" r="0.9"/>
    <circle cx="2.8" cy="18.9" r="0.9"/><circle cx="7" cy="18.9" r="0.9"/><circle cx="11.2" cy="18.9" r="0.9"/><circle cx="15.4" cy="18.9" r="0.9"/><circle cx="19.6" cy="18.9" r="0.9"/>
  </g>
</svg>
