<svg width="1200" height="1200" viewBox="0 0 1200 1200" fill="none" xmlns="http://www.w3.org/2000/svg">
  <defs>
    <radialGradient id="bgGlow" cx="0" cy="0" r="1" gradientUnits="userSpaceOnUse" gradientTransform="translate(610 640) rotate(90) scale(430)">
      <stop stop-color="#FFF8D6" stop-opacity="0.7"/>
      <stop offset="1" stop-color="#FFF8D6" stop-opacity="0"/>
    </radialGradient>
    <linearGradient id="juiceMain" x1="350" y1="230" x2="848" y2="990" gradientUnits="userSpaceOnUse">
      <stop stop-color="#FFD146"/>
      <stop offset="0.42" stop-color="#FF9E0D"/>
      <stop offset="1" stop-color="#F07A00"/>
    </linearGradient>
    <linearGradient id="cupEdge" x1="340" y1="250" x2="880" y2="930" gradientUnits="userSpaceOnUse">
      <stop stop-color="#FFFFFF" stop-opacity="0.95"/>
      <stop offset="1" stop-color="#FFFFFF" stop-opacity="0.25"/>
    </linearGradient>
    <linearGradient id="splash" x1="186" y1="232" x2="1020" y2="412" gradientUnits="userSpaceOnUse">
      <stop stop-color="#FFD91A"/>
      <stop offset="0.58" stop-color="#FFB000"/>
      <stop offset="1" stop-color="#FF8C00"/>
    </linearGradient>
    <filter id="shadow" x="170" y="100" width="900" height="1080" filterUnits="userSpaceOnUse" color-interpolation-filters="sRGB">
      <feDropShadow dx="0" dy="22" stdDeviation="20" flood-color="#8B3B00" flood-opacity="0.28"/>
    </filter>
  </defs>

  <circle cx="600" cy="612" r="420" fill="url(#bgGlow)"/>

  <g filter="url(#shadow)" transform="rotate(-9 610 650)">
    <path d="M316 356C334 304 386 266 442 266H772C826 266 874 300 892 350L834 930C823 994 768 1042 703 1042H500C438 1042 385 997 372 936L316 356Z" fill="url(#cupEdge)"/>
    <path d="M346 388C361 348 399 320 442 320H767C809 320 846 347 861 386L815 903C805 952 763 987 713 987H496C448 987 407 955 396 908L346 388Z" fill="url(#juiceMain)"/>

    <ellipse cx="608" cy="340" rx="280" ry="60" fill="#FFE58A" fill-opacity="0.78"/>
    <path d="M300 338C395 286 500 277 606 288C712 299 818 329 918 376C931 382 930 401 914 405C854 420 792 425 730 421C604 412 480 382 356 388C334 389 306 377 296 361C291 353 292 343 300 338Z" fill="url(#splash)"/>

    <path d="M210 388C228 367 270 366 285 388C299 409 283 438 256 439C232 440 194 418 210 388Z" fill="#FFB300"/>
    <path d="M964 362C980 343 1020 347 1032 372C1046 401 1015 431 983 424C957 419 944 386 964 362Z" fill="#FFB300"/>
    <path d="M170 492C182 473 214 469 228 487C244 510 220 544 190 537C170 532 159 510 170 492Z" fill="#FFAA00"/>
    <path d="M950 512C962 495 994 493 1008 509C1024 529 1007 561 979 562C957 562 936 532 950 512Z" fill="#FFA000"/>

    <ellipse cx="618" cy="728" rx="175" ry="122" fill="#FFE9A9" fill-opacity="0.27"/>
    <text x="610" y="756" text-anchor="middle" fill="#5A1A7A" font-size="112" font-family="Inter, Arial, sans-serif" font-weight="800">KaSucos</text>
  </g>
</svg>
