<svg width="900" height="600" viewBox="0 0 900 600" fill="none" xmlns="http://www.w3.org/2000/svg">
  <defs>
    <linearGradient id="field" x1="0" y1="0" x2="0" y2="1">
      <stop offset="0" stop-color="#C8F1A5"/>
      <stop offset="1" stop-color="#8DD85A"/>
    </linearGradient>
    <linearGradient id="wood" x1="0" y1="0" x2="1" y2="1">
      <stop offset="0" stop-color="#C78A43"/>
      <stop offset="1" stop-color="#9E612C"/>
    </linearGradient>
  </defs>
  <rect width="900" height="600" rx="48" fill="#EAFCE1"/>
  <path d="M0 360C144 318 258 382 431 364C592 346 738 284 900 326V600H0V360Z" fill="url(#field)"/>
  <rect x="118" y="190" width="34" height="270" rx="12" fill="url(#wood)"/>
  <rect x="286" y="165" width="34" height="295" rx="12" fill="url(#wood)"/>
  <rect x="452" y="180" width="34" height="280" rx="12" fill="url(#wood)"/>
  <rect x="620" y="160" width="34" height="300" rx="12" fill="url(#wood)"/>
  <rect x="140" y="244" width="520" height="26" rx="11" fill="#B77435"/>
  <rect x="140" y="320" width="520" height="26" rx="11" fill="#B77435"/>
</svg>
